<svg
  width="300"
  height="300"
  viewBox="0 0 300 300"
  xmlns="http://www.w3.org/2000/svg"
>
  <rect x="0" y="0" width="300" height="300" fill="#f5f5f5"/>

  <line x1="0" y1="230" x2="300" y2="230" stroke="#cccccc" stroke-width="2"/>

  <ellipse cx="150" cy="245" rx="75" ry="8" fill="#d0d0d0" opacity="0.6"/>

  <g id="skateboard" transform="translate(100,220)">
    <path
      d="M10 0
         Q0 -5 0 -10
         L80 -10
         Q90 -5 90 0
         Q80 -4 70 -2
         L20 -2
         Q10 -4 10 0 Z"
      fill="#333333"
    />
    <rect x="8" y="-12" width="74" height="4" rx="2" fill="#ff7043"/>

    <rect x="18" y="-4" width="12" height="8" fill="#888888"/>
    <rect x="60" y="-4" width="12" height="8" fill="#888888"/>

    <circle cx="22" cy="6" r="6" fill="#222222"/>
    <circle cx="68" cy="6" r="6" fill="#222222"/>
    <circle cx="22" cy="6" r="2" fill="#bbbbbb"/>
    <circle cx="68" cy="6" r="2" fill="#bbbbbb"/>
  </g>

  <g id="monkey" transform="translate(150,150)">
    <path
      d="M-40 10
         C-60 0 -60 -25 -40 -30
         C-20 -35 -20 -10 -35 -5
         C-45 -2 -45 5 -40 10 Z"
      fill="#795548"
    />

    <ellipse cx="0" cy="15" rx="30" ry="35" fill="#6d4c41"/>
    <ellipse cx="0" cy="20" rx="18" ry="22" fill="#a1887f"/>

    <g>
      <rect x="-18" y="25" width="10" height="28" rx="5" fill="#5d4037"/>
      <rect x="8" y="25" width="10" height="28" rx="5" fill="#5d4037"/>

      <ellipse cx="-13" cy="55" rx="10" ry="5" fill="#4e342e"/>
      <ellipse cx="13" cy="55" rx="10" ry="5" fill="#4e342e"/>
    </g>

    <g>
      <path
        d="M-22 5
           C-35 0 -40 -5 -40 -15
           C-40 -20 -35 -22 -30 -20
           C-25 -18 -20 -10 -18 -3 Z"
        fill="#5d4037"
      />
      <path
        d="M22 5
           C35 0 40 -5 40 -15
           C40 -20 35 -22 30 -20
           C25 -18 20 -10 18 -3 Z"
        fill="#5d4037"
      />
    </g>

    <g transform="translate(0,-25)">
      <circle cx="0" cy="0" r="24" fill="#6d4c41"/>
      <ellipse cx="0" cy="4" rx="16" ry="14" fill="#d7ccc8"/>

      <circle cx="-20" cy="-2" r="8" fill="#6d4c41"/>
      <circle cx="-20" cy="-2" r="4" fill="#d7ccc8"/>
      <circle cx="20" cy="-2" r="8" fill="#6d4c41"/>
      <circle cx="20" cy="-2" r="4" fill="#d7ccc8"/>

      <circle cx="-6" cy="0" r="3" fill="#000"/>
      <circle cx="6" cy="0" r="3" fill="#000"/>
      <circle cx="-5.5" cy="-0.5" r="1" fill="#fff"/>
      <circle cx="6.5" cy="-0.5" r="1" fill="#fff"/>

      <ellipse cx="0" cy="4" rx="3" ry="2" fill="#5d4037"/>

      <path
        d="M-6 9 Q0 13 6 9"
        fill="none"
        stroke="#5d4037"
        stroke-width="2"
        stroke-linecap="round"
      />
    </g>
  </g>

</svg>

